<svg xmlns="http://www.w3.org/2000/svg" height="800" width="1200" viewBox="-25.657455 -13.52905 222.36461 81.1743"><defs><clipPath id="a"><path d="M408.164 63H453v24h-44.836zm0 0"/></clipPath><clipPath id="b"><path d="M538 53h7.0078v30H538zm0 0"/></clipPath><clipPath id="c"><path d="M469 83h63v12.3281h-63zm0 0"/></clipPath></defs><g clip-path="url(#a)" transform="matrix(1.25 0 0 1.25 -510.2073 -65.044)"><path d="M432.8633 84.7266l-4.6758-.004c-1.8086 0-3.5664-.3203-5.1836-.8788a.4896.4896 0 00-.039-.0118c-8.0235-1.1406-14.0157-7.7695-13.6524-15.4687l.2383-5.0195v-.0235c-.008.0078-.0195.0156-.0273.0235-.8868.918-1.3946 2.1054-1.3555 3.3828l.1914 5.8984c.246 7.8594 7.8554 14.4375 17 14.1563l27.3594-.9024-19.832-1.1523zm0 0" fill="#94d4d7"/></g><path d="M9.7048 6.7725c.3125-.1319.6347-.2442.9668-.3272l-1.797-.0097c-3.7939-.0245-6.914 2.7392-7.08 6.2695l-.0635 1.3965c.9766-.9961 2.2705-1.7383 3.794-2.0801.3906-2.3633 2.0166-4.331 4.1796-5.249" fill="#fab314"/><path d="M152.488 0c-8.6475 0-75.1807 3.2568-75.1807 3.2568L12.1218 6.2207a7.1737 7.1737 0 00-1.4551.2246c-.3272.0879-.6494.1953-.962.3272-2.163.918-3.789 2.8857-4.1796 5.249.0244 0 .0439-.0049.0635-.0098.3906-.083.8398-.1416 1.245-.1709l68.8282-4.8486s1.167-.0879 3.2031-.2393c13.838-1.0107 68.213-4.9609 76.1817-5.2148 3.4668-.1074 5.8203.0488 7.4805.3418C161.1696.9326 158.7917 0 152.488 0" fill="#eb192e"/><path d="M5.3884 22.168c0-.0196 0-.0391-.005-.0537a23.325 23.325 0 01-.0147-.8399l.0195-8.1299a14.936 14.936 0 01.1368-1.1181c-1.5235.3369-2.8174 1.079-3.794 2.08v.0293l-.2978 6.2745c-.4541 9.624 7.036 17.9101 17.0654 19.3359-7.373-2.5732-12.7393-9.5215-13.1104-17.5781" fill="#a69c35"/><g clip-path="url(#b)" transform="matrix(1.25 0 0 1.25 -510.2073 -65.044)"><path d="M544.8047 59.6172c-.6016-2.4414-2.0274-3.8555-3.004-4.5547-.7382-.4844-1.4491-1.1484-3.6132-1.5273.4023.2812.6914.5585.9883.8046.9023.8008 2.207 2.4063 2.707 5.1094.2578 1.3906.1094 4.0274-.2305 7.0899-.371 3.3125-.9648 7.121-1.5273 10.4023 0 .0078-.004.0117-.004.0195 0-.0078.004-.0117.004-.0195a370.2409 370.2409 0 01-.754 4.2461c-.0897.4844-.2304.8828-.4608 1.293-.0117.0234-.1446.2656-.2305.3789h-.004v.0039c.043-.0078.0859-.0157.1289-.0196 2.0117-.2617 3.6406-1.621 3.961-3.3867 1.0234-5.586 2.8476-16.5742 2.039-19.8398" fill="#94d4d7"/></g><path d="M56.0524 42.2852l.044.0048-.4053.0147 2.8418.1611 18.5059.5518V41.328zm102.5049-1.3184l-4.5215-.0049.0733 4.3604 2.3388.0683c2.7247.1319 5.1416-.498 5.7569-2.9638a380.589 380.589 0 00.9375-3.8965c-1.0059 1.4844-2.7002 2.4365-4.585 2.4365" fill="#fab314"/><path d="M56.0524 42.2852l20.9863-.957v-.4249l-46.1376-.039 24.79 1.4404.4053-.0147zm0 0" fill="#a69c35"/><path d="M163.1374 38.5303c-.171.0195-.3418.0293-.5127.039l-8.628.2637.039 2.129 4.5215.0048c1.8848 0 3.5791-.9522 4.585-2.4365h.005-.01" fill="#eb192e"/><path d="M166.858 18.1299c.4249-3.8281.6056-7.124.2882-8.8623-.625-3.379-2.2559-5.3858-3.3838-6.3867-.3711-.3077-.7373-.6543-1.2354-1.0059h-.005c-1.6601-.288-4.0088-.4443-7.4756-.337-7.9638.2491-62.3388 4.2042-76.1767 5.215-2.041.1513-3.2031.2343-3.2031.2343L6.8384 11.8408c-.4296.0293-.9082.0928-1.3086.1856-.0635.3662-.1025.7177-.1416 1.1181l-.0195 8.13c0 .2782.005.5614.0195.8398v.0537c.3711 8.0566 5.7374 15.0049 13.1104 17.578.0146.005.0342.0098.0489.0147 2.0214.6983 4.2187 1.0987 6.4795 1.0987l14.9853.0146 37.0264.0293v-.0049l76.9385-2.0654h.0195l8.6279-.2637a6.0358 6.0358 0 00.5127-.039h.01c.1025-.1416.2685-.4444.2832-.4736.288-.5127.459-1.0108.5713-1.6163.2832-1.5185.6103-3.3398.9472-5.3076 0 .0098-.005.0147-.005.0244 0-.0097.005-.0146.005-.0244.7032-4.1015 1.4454-8.8623 1.9092-13.0029" fill="#bd1e2e"/><path d="M35.7009 23.1104c.83 0 1.5136-.0928 2.0556-.2881.542-.1905.9912-.4883 1.3526-.8936.3564-.4004.6347-.8691.8252-1.4062.1953-.5323.293-1.1377.293-1.8067 0-.8154-.2052-1.4209-.6153-1.8262-.4102-.4003-1.0596-.6005-1.9483-.6005-.6396 0-1.0644.0097-1.2841.0244l-1.4698 6.7968zm3.6816 1.0058c.503.4102.8691.8057 1.0986 1.1865.2344.3809.4297.9375.586 1.665l.3662 1.7579c.1318.6396.2588 1.0937.3808 1.3672.122.2685.2881.4931.4932.664.205.171.4834.2979.8447.3809l-.1758.83h-4.4824c-.2783-.786-.5224-1.7187-.7275-2.8027l-.4053-2.085c-.1171-.625-.2539-1.123-.415-1.4794-.1563-.3613-.3614-.6201-.6006-.7813-.2442-.1562-.5713-.2392-.9815-.2392h-.7812l-.9033 3.9941a11.537 11.537 0 00-.127.7178c-.0244.2002-.0341.454-.0341.7568 0 .3809.0976.6543.293.8155.1953.1562.5029.249.9228.2734l-.1758.83h-6.4941l.1758-.83c.3515-.0977.625-.2393.8105-.415.1856-.1758.3516-.42.4834-.7471.1319-.3223.2686-.7861.4004-1.4014l2.29-10.3613c.1074-.4932.1612-.9863.1612-1.4697 0-.3516-.083-.6104-.2442-.7764-.166-.1611-.4296-.2686-.7959-.3174l.1758-.83h6.2647c.8496 0 1.5185.0243 2.0068.0683.4883.0488.957.1367 1.4063.2783.4492.1367.835.3076 1.1572.5127.3222.205.5957.4492.83.7373.2296.2832.4053.6153.5274.9912.122.376.1807.8008.1807 1.2696 0 1.2646-.3711 2.3388-1.1182 3.2177-.747.879-1.8799 1.582-3.4033 2.1094zm8.2031 1.0205c1.5381-.044 2.7198-.3369 3.5352-.8887.8154-.5468 1.2256-1.3232 1.2256-2.329 0-.4297-.0977-.752-.293-.9766-.2002-.2197-.4736-.332-.8252-.332-.7812 0-1.4795.3857-2.1045 1.1572-.625.7715-1.1377 1.8945-1.538 3.3691m6.66 4.2188c-.8495.9521-1.7577 1.665-2.7343 2.124-.9766.459-2.0361.6885-3.1738.6885-.9766 0-1.8115-.171-2.5-.5127-.6836-.3418-1.2012-.8545-1.5528-1.5283-.3466-.6739-.5175-1.4795-.5175-2.417 0-.4346.0586-.9913.1757-1.67.1563-.9228.4004-1.7431.7276-2.4658.4101-.8838.9473-1.6504 1.6064-2.2851.664-.6348 1.4405-1.128 2.334-1.4698.8887-.3418 1.8701-.5175 2.9297-.5175 1.2598 0 2.212.2294 2.8662.6884.6543.4541.9815 1.1524.9815 2.0899 0 .6396-.127 1.2011-.3858 1.6845-.2539.4883-.6787.9278-1.2744 1.3184-.5957.3955-1.4355.7129-2.5195.957-1.084.2442-2.3926.3809-3.9258.415-.1074.4932-.1611 1.006-.1611 1.5333 0 .3076.0292.6054.0878.8838.0587.2783.1612.5273.3125.747.1514.2198.3516.3907.6055.5225.249.127.5713.1953.9668.1953.7373 0 1.4014-.1514 1.997-.4492.5958-.293 1.294-.8252 2.0948-1.587zm2.8761-.9034c.039.6006.161 1.084.371 1.4502.2051.3663.4542.6153.7569.752.3027.1416.6543.21 1.0547.21.664 0 1.1767-.1612 1.5332-.4834.3613-.3223.542-.7764.542-1.3623 0-.3565-.0587-.6495-.1758-.8936-.1171-.2441-.3125-.4785-.5762-.708-.2685-.2344-.708-.5322-1.3086-.8984-.8398-.503-1.4453-1.0254-1.8261-1.5674-.3858-.5371-.5713-1.1426-.5713-1.8164 0-1.2305.459-2.1778 1.3818-2.837.918-.664 2.207-.9912 3.8672-.9912.6445 0 1.3379.0489 2.08.1563.7423.1025 1.416.2441 2.0264.42l-.6543 3.0028H64.031c-.0781-.7812-.2734-1.3525-.5957-1.7187-.3222-.3711-.7861-.5566-1.3916-.5566-.5615 0-1.0107.1464-1.3476.4345-.3418.2881-.5127.6787-.5127 1.1768 0 .3076.0684.581.1953.8154.1318.2344.3369.4688.625.7031.2832.2344.708.5176 1.2695.8545.8838.5274 1.5235 1.0742 1.9092 1.6309.3857.5615.5762 1.2207.5762 1.9726 0 .8545-.2295 1.587-.6836 2.1875-.459.6055-1.084 1.0498-1.875 1.3428-.791.293-1.6944.4395-2.7051.4395-.8984 0-1.7285-.0537-2.5-.1612-.7715-.1074-1.4941-.2539-2.1728-.4394l.703-3.1153zm17.6513 1.2305c-.5957.6445-1.123 1.1377-1.5967 1.4844-.4687.3418-.957.5957-1.4648.7568-.5127.166-1.1035.2442-1.7725.2442-.6787 0-1.245-.1221-1.6943-.3711-.4443-.2442-.7715-.5762-.9717-.9912-.2002-.415-.3027-.879-.3027-1.4014 0-.3906.0292-.7666.0879-1.123.0586-.3565.1806-.9424.3662-1.753l1.294-5.454H67.024l.1758-.8253c.5175-.0342.9228-.122 1.2158-.2588.293-.1416.542-.3418.747-.6103.2051-.2686.4005-.6348.586-1.1035.1855-.4688.3906-1.1084.6152-1.9141h3.0176l-.7324 3.1445h3.0566l-.3418 1.5674h-3.0761l-1.3965 5.7422c-.0586.254-.1124.498-.1612.7422-.0488.2441-.0927.4736-.127.6982-.0342.2198-.0585.4053-.0683.5518a3.9601 3.9601 0 00-.0195.3955c0 .3955.0684.6836.2149.8594.1416.1806.3515.2734.625.2734.3808 0 .7666-.1367 1.162-.4053.4005-.2636.8302-.6787 1.2891-1.2402zm9.5508-5.5273a8.101 8.101 0 00.1416-.8985c.039-.332.0586-.6543.0586-.9619 0-.5517-.1073-.9717-.3125-1.2549-.21-.288-.5566-.4296-1.0302-.4296-.7813 0-1.4698.3906-2.0752 1.1767-.6006.7813-1.089 1.836-1.46 3.1592-.3662 1.3232-.5518 2.5098-.5518 3.5547 0 .6103.0928 1.0693.2735 1.3672.1758.3027.459.454.835.454.5517 0 1.1132-.2685 1.6894-.8105.5762-.537 1.0351-1.1719 1.3867-1.8994.3516-.7324.669-1.7285.9424-2.9932zm1.8945-3.9453l1.1328-.9082 1.4063.205-1.9336 8.755c-.1025.4443-.1758.8007-.2197 1.0693-.0489.2685-.0684.4931-.0684.6787 0 .376.0879.6494.2734.8154.1856.166.5127.2734.9815.3125l-.1367.83h-4.8242l.6787-2.5732-.166-.0537c-.5713.7373-1.0987 1.3086-1.587 1.7188-.4931.4052-.9716.6933-1.4453.8593-.4736.166-1.0205.249-1.6406.249-.586 0-1.1035-.1367-1.5479-.415-.4443-.2734-.7959-.7129-1.0546-1.3135-.2588-.5957-.3858-1.3574-.3858-2.2753 0-.879.1025-1.7676.3076-2.666.2051-.8936.5078-1.7286.9082-2.505.4004-.7763.9082-1.4404 1.5186-1.9921.6152-.5518 1.3086-.9766 2.08-1.2647.7764-.288 1.6212-.4345 2.5342-.4345 1.2452 0 2.3096.3027 3.1885.9082m4.0137-.7032h5.2149l-1.5723 6.831c-.2246.9767-.3662 1.6456-.415 2.0118-.049.3711-.0733.6592-.0733.8691 0 .3907.0732.6788.2295.8545.1562.1758.3857.2637.6885.2637.166 0 .3466-.044.537-.122.1905-.0782.3858-.1954.5762-.3516.1954-.1514.4297-.3711.708-.6446.2735-.2783.5176-.5712.7276-.8886.21-.3125.3808-.6494.5225-1.0108.1367-.3564.2636-.8154.3808-1.3672l1.3818-6.4453h3.6084l-1.9726 8.8672c-.044.2002-.1025.4883-.171.8594-.0732.376-.1073.6885-.1073.9375 0 .3516.0976.5957.293.7226.2002.1319.5078.2149.9277.2442l-.1904.83h-4.7363l.6787-2.5732-.1514-.0537c-.7764.9717-1.5283 1.6895-2.2559 2.1436-.7226.459-1.5478.6836-2.4658.6836-.8496 0-1.5185-.2393-2.0117-.7227-.4932-.4785-.7422-1.1426-.7422-1.9922 0-.542.083-1.1914.249-1.9433l1.0352-4.6485c.0781-.3857.1367-.6836.166-.8935.0293-.21.0439-.3907.0439-.5371 0-.3711-.0928-.63-.2734-.7813-.1856-.1514-.5127-.2539-.9815-.3125zm24.1113 3.418h-2.246c0-.5615-.0636-.9521-.1856-1.1719-.122-.2148-.3272-.3271-.6201-.3271-.1319 0-.2735.0293-.42.083-.1464.0537-.3173.1514-.5029.288-.1904.1417-.415.3663-.6787.674-.2637.3075-.4834.6103-.6592.9032a5.3298 5.3298 0 00-.4394.9229c-.1171.3222-.2295.7324-.3272 1.2256l-1.3818 6.4453h-3.6084l1.9727-8.8672c.1855-.83.2783-1.4307.2783-1.7969 0-.3515-.0976-.5957-.2979-.7226-.1953-.1319-.503-.2149-.9228-.2442l.1904-.83 3.4522-.1417h1.4209l-.9424 2.915.1513.0538c.7032-.9961 1.4453-1.753 2.2266-2.2608.7764-.5126 1.6162-.7666 2.5244-.7666.5518 0 1.1377.0782 1.7578.2344zm8.1543 1.2305c.0587-.2686.1074-.5664.1465-.8985.039-.332.0586-.6543.0586-.9619 0-.5517-.1073-.9717-.3173-1.2549-.21-.288-.5518-.4296-1.0303-.4296-.7764 0-1.4697.3906-2.0703 1.1767-.6055.7813-1.0889 1.836-1.46 3.1592-.3662 1.3232-.5517 2.5098-.5517 3.5547 0 .6103.0878 1.0693.2685 1.3672.1807.3027.459.454.835.454.5566 0 1.1181-.2685 1.6894-.8105.5762-.537 1.04-1.1719 1.3916-1.8994.3516-.7324.664-1.7285.9424-2.9932zm1.8994-3.9453l1.1329-.9082 1.4062.205-1.9385 8.755c-.0976.4443-.1709.8007-.2197 1.0693-.044.2685-.0684.4931-.0684.6787 0 .376.0928.6494.2784.8154.1855.166.5078.2734.9814.3125l-.1416.83h-4.8242l.6787-2.5732-.1611-.0537c-.5713.7373-1.1036 1.3086-1.5918 1.7188-.4883.4052-.9717.6933-1.4454.8593-.4736.166-1.0205.249-1.6406.249-.586 0-1.0986-.1367-1.543-.415-.4443-.2734-.7958-.7129-1.0546-1.3135-.2588-.5957-.3907-1.3574-.3907-2.2753 0-.879.1025-1.7676.3077-2.666.205-.8936.5078-1.7286.913-2.505.4004-.7763.9082-1.4404 1.5186-1.9921.6104-.5518 1.3037-.9766 2.08-1.2647.7764-.288 1.6163-.4345 2.5294-.4345 1.25 0 2.3144.3027 3.1933.9082m15.8936 11.7578h-5.2148l1.5722-6.831c.2246-.9718.3614-1.6456.415-2.0118.049-.3711.0733-.6592.0733-.8691 0-.376-.0781-.6543-.2392-.8399-.1612-.1855-.3907-.2783-.6885-.2783-.2686 0-.5615.1025-.879.3027-.3222.2002-.6786.5176-1.0693.9424-.3955.4248-.708.879-.9423 1.3574-.2344.4785-.4248 1.0743-.5664 1.7823l-1.3819 6.4453h-3.6035l1.9727-8.8672c.039-.205.0976-.4883.166-.8643.0732-.371.1073-.6836.1073-.9326 0-.3516-.0976-.5957-.293-.7226-.2001-.1319-.5077-.21-.9228-.2442l.1856-.83 3.457-.1368h1.3184l-.7178 2.71.1514.0537c.5761-.7129 1.1132-1.2744 1.6064-1.6797.498-.4053.9863-.6982 1.4795-.879.4883-.1806 1.0303-.2733 1.626-.2733.8642 0 1.543.2441 2.0361.7275.4932.4785.7373 1.1426.7373 1.9873 0 .5469-.0781 1.1963-.249 1.9482l-1.0303 4.6485c-.083.3857-.1416.6836-.1709.8935-.0292.21-.044.3907-.044.5371 0 .3809.0976.6446.2832.796.1904.1464.5127.249.9766.2978zm9.9365-2.2852c-.5908.6445-1.123 1.1377-1.5918 1.4844-.4687.3418-.9619.5957-1.4697.7568-.5127.166-1.1035.2442-1.7725.2442-.6787 0-1.245-.1221-1.6894-.3711-.4492-.2442-.7715-.5762-.9766-.9912-.2002-.415-.2978-.879-.2978-1.4014 0-.3906.0243-.7666.083-1.123.0635-.3565.1806-.9424.3662-1.753l1.294-5.454h-1.6944l.1758-.8253c.5175-.0342.9228-.122 1.2158-.2588.2978-.1416.542-.3418.752-.6103.205-.2686.3955-.6348.581-1.1035.1855-.4688.3906-1.1084.6152-1.9141h3.0176l-.7324 3.1445h3.0566l-.3418 1.5674h-3.0761l-1.3965 5.7422c-.0586.254-.1124.498-.1612.7422-.0488.2441-.0927.4736-.127.6982a9.8604 9.8604 0 00-.0683.5518c-.01.1465-.0195.2783-.0195.3955 0 .3955.0733.6836.2149.8594.1416.1806.3515.2734.6298.2734.376 0 .7618-.1367 1.1621-.4053.3956-.2636.8252-.6836 1.2842-1.2402zm0 0" fill="#fff"/><g clip-path="url(#c)" transform="matrix(1.25 0 0 1.25 -510.2073 -65.044)"><path d="M531.461 88.7031l-.0978-5.5937v-.0078h-.0156l-61.5507 1.6523v10.5703h53.8867s3.668.1875 5.7617-1.918c1.7148-1.7304 2.082-3.8046 2.0156-4.703"/></g><path d="M94.2946 47.3877h-1.914v2.4414h1.914c.8447 0 1.3184-.5176 1.3184-1.2256 0-.708-.4737-1.2158-1.3184-1.2158m-.1122-3.3838h-1.8018v2.295h1.8018c.7763 0 1.3037-.4053 1.3037-1.1475s-.5274-1.1475-1.3037-1.1475m.2246 6.919h-3.2373V42.915h3.1152c1.4844 0 2.417.8399 2.417 2.1924 0 .8643-.542 1.4844-1.0791 1.6992.6201.2442 1.2012.8399 1.2012 1.8555 0 1.4746-.9961 2.2607-2.417 2.2607m8.413-6.9189h-1.8018v2.5098h1.8018c.8105 0 1.3623-.4639 1.3623-1.25 0-.7862-.5518-1.2598-1.3623-1.2598m1.4062 6.919l-1.6894-3.374h-1.5186v3.374h-1.2158v-8.0127h3.1055c1.5185 0 2.4853.9814 2.4853 2.3437 0 1.1475-.6982 1.875-1.5966 2.124l1.8457 3.545zm6.7774-6.2012l-1.25 3.5547h2.4658zm2.1045 6.2011l-.5518-1.6113h-3.164l-.547 1.6113h-1.2939l2.9346-8.0078h.9766l2.9394 8.0078zm8.7353 0l-3.6963-5.6347v5.6347h-1.2158v-8.0126h1.1133l3.7012 5.625v-5.625h1.2158v8.0126zm8.6524-6.3818c-.337-.3662-.7862-.5371-1.3623-.5371h-1.4746v5.8252h1.4746c.5761 0 1.0254-.166 1.3623-.5371.415-.4639.4248-1.3281.4248-2.4317 0-1.1035-.01-1.8554-.4248-2.3193m.83 5.625c-.5078.5078-1.2353.7568-2.0703.7568h-2.8125V42.915h2.8125c.835 0 1.5625.2442 2.0704.752.869.8642.8105 2.0361.8105 3.1933 0 1.1573.0586 2.4415-.8105 3.3057m6.1279.8203c-1.2012 0-2.0703-.2783-2.832-1.0547l.8105-.8007c.586.5859 1.2256.7666 2.0459.7666 1.045 0 1.6553-.4493 1.6553-1.2256 0-.3516-.1025-.6397-.3174-.8301-.2002-.1953-.4053-.2734-.874-.3418l-.9473-.1318c-.6543-.0928-1.1719-.3174-1.5186-.6446-.3955-.371-.5859-.874-.5859-1.5283 0-1.3965 1.0108-2.3486 2.6758-2.3486 1.0596 0 1.8018.2685 2.4853.9082l-.7763.7666c-.4932-.4737-1.0645-.6201-1.7432-.6201-.9424 0-1.46.542-1.46 1.25 0 .293.088.5517.3028.7422.205.1806.5322.3125.8984.371l.9131.1319c.7422.1172 1.1572.2978 1.4942.6006.4394.3808.6542.957.6542 1.6406 0 1.4746-1.2011 2.3486-2.8808 2.3486" fill="#fff"/></svg>